<?xml version="1.0" encoding="UTF-8" standalone="no"?><!DOCTYPE svg PUBLIC "-//W3C//DTD SVG 1.1//EN" "http://www.w3.org/Graphics/SVG/1.1/DTD/svg11.dtd"><svg width="100%" height="100%" viewBox="0 0 2813 1000" version="1.1" xmlns="http://www.w3.org/2000/svg" xmlns:xlink="http://www.w3.org/1999/xlink" xml:space="preserve" xmlns:serif="http://www.serif.com/" style="fill-rule:evenodd;clip-rule:evenodd;stroke-linejoin:round;stroke-miterlimit:2;"><path d="M2322.729,21.662l-159.338,192.914l85.346,0l-198.05,247.966l0,-440.88l-202.287,-0c-57.158,0 -99.925,22.374 -126.783,56.445l-332.542,416.619l0,-473.063l-331.329,-0l0,974.255l317.992,0l342.413,-428.129l0,428.129l201.329,0c86.371,0 124.154,-13.896 176.421,-77.117l716.263,-897.138l-489.433,0Z" style="fill:#ececec;fill-rule:nonzero;"/><path d="M990.963,940.429l-458.483,-916.973c-9.038,-19.867 -18.042,-23.457 -28.875,-23.457c-9.033,0 -19.867,3.62 -30.696,21.662c-64.986,102.893 -93.858,222.033 -93.858,346.558c0,173.293 88.442,335.727 218.413,597.464c14.45,28.871 25.283,34.288 50.533,34.288l317.688,0c23.454,0 36.113,-9.038 36.113,-27.079c0,-9.038 -1.796,-14.45 -10.833,-32.492l0,0.029Z" style="fill:#ececec;fill-rule:nonzero;"/><path d="M324.895,507.225c-36.113,-54.154 -46.944,-57.775 -55.949,-57.775c-9.005,0 -14.451,3.621 -30.698,36.113l-229.212,458.488c-7.21,14.454 -9.036,19.867 -9.036,27.079c0,14.45 12.626,28.871 39.703,28.871l323.101,0c21.662,0 37.908,-18.042 46.944,-52.358c10.831,-43.325 14.452,-81.233 14.452,-126.35c0,-126.35 -55.95,-249.112 -99.273,-314.067l-0.031,0Z" style="fill:#ececec;fill-rule:nonzero;"/></svg>